<svg xmlns="http://www.w3.org/2000/svg" viewBox="0 0 50 50" width="50px" height="50px">
    <path d="M15 4C8.9365932 4 4 8.9365932 4 15L4 35C4 41.063407 8.9365932 46 15 46L35 46C41.063407 46 46 41.063407 46 35L46 15C46 8.9365932 41.063407 4 35 4L15 4zM16.740234 6L27.425781 6L33.259766 16L22.574219 16L16.740234 6zM29.740234 6L35 6C39.982593 6 44 10.017407 44 15L44 16L35.574219 16L29.740234 6zM14.486328 6.1035156L20.259766 16L6 16L6 15C6 10.199833 9.7581921 6.3829803 14.486328 6.1035156zM6 18L44 18L44 35C44 39.982593 39.982593 44 35 44L15 44C10.017407 44 6 39.982593 6 35L6 18zM21.978516 23.013672C20.435152 23.049868 19 24.269284 19 25.957031L19 35.041016C19 37.291345 21.552344 38.713255 23.509766 37.597656L31.498047 33.056641C33.442844 31.951609 33.442844 29.044485 31.498047 27.939453L23.509766 23.398438L23.507812 23.398438C23.018445 23.120603 22.49297 23.001607 21.978516 23.013672zM21.982422 24.986328C22.158626 24.988232 22.342399 25.035052 22.521484 25.136719L30.511719 29.677734C31.220922 30.080703 31.220922 30.915391 30.511719 31.318359L22.519531 35.859375C21.802953 36.267773 21 35.808686 21 35.041016L21 25.957031C21 25.573196 21.201402 25.267385 21.492188 25.107422C21.63758 25.02744 21.806217 24.984424 21.982422 24.986328z" fill="#ffffff"/>
</svg>
